<svg width="20" height="20" viewBox="0 0 20 20" fill="none" xmlns="http://www.w3.org/2000/svg">
<g clip-path="url(#clip0_1653_35)">
<path d="M7.58271 7.54062C7.58271 6.42188 6.82178 6.42188 6.82178 6.42188H3.69678V8.82031H6.62803C7.13428 8.82031 7.58271 8.65781 7.58271 7.54062ZM6.82178 10.4781H3.69678V13.35H6.68115C7.12959 13.3375 7.95928 13.1938 7.95928 11.9531C7.95459 10.4688 6.82178 10.4781 6.82178 10.4781ZM14.8327 8.82031C13.1718 8.82031 12.9405 10.4766 12.9405 10.4766H16.4718C16.4718 10.4766 16.4937 8.82031 14.8327 8.82031Z" fill="#CDCDCD"/>
<path d="M17.3827 0.337494H2.61709C2.01248 0.337494 1.43263 0.577675 1.00511 1.0052C0.577583 1.43272 0.337402 2.01257 0.337402 2.61718V17.3812C0.337402 17.9859 0.577583 18.5657 1.00511 18.9932C1.43263 19.4208 2.01248 19.6609 2.61709 19.6609H17.3812C17.9858 19.6609 18.5656 19.4208 18.9931 18.9932C19.4207 18.5657 19.6608 17.9859 19.6608 17.3812V2.61718C19.6608 2.01284 19.4209 1.43323 18.9937 1.00575C18.5665 0.578272 17.9871 0.337908 17.3827 0.337494ZM12.478 5.14374H16.9124V6.46874H12.478V5.14374ZM10.2358 12.0875C10.2358 15.3687 6.82178 15.2609 6.82178 15.2609H1.22803V4.51093H6.82178C8.52178 4.51093 9.86397 5.44843 9.86397 7.37343C9.86397 9.29843 8.22334 9.41875 8.22334 9.41875C10.3858 9.41875 10.2358 12.0875 10.2358 12.0875ZM18.5312 11.9125H12.9687C12.9687 13.9094 14.8608 13.7875 14.8608 13.7875C16.6468 13.7875 16.5796 12.6312 16.5796 12.6312H18.4687C18.4687 15.7 14.7905 15.4891 14.7905 15.4891C10.3765 15.4891 10.6608 11.3797 10.6608 11.3797C10.6608 11.3797 10.6608 7.24999 14.7905 7.24999C19.1421 7.24687 18.5327 11.9125 18.5327 11.9125H18.5312Z" fill="#CDCDCD"/>
</g>
<defs>
<clipPath id="clip0_1653_35">
<rect width="20" height="20" fill="white"/>
</clipPath>
</defs>
</svg>
