<svg width="20" height="20" viewBox="0 0 20 20" fill="none" xmlns="http://www.w3.org/2000/svg">
<path d="M16.3641 3.63599C16.2219 3.50351 16.0338 3.43139 15.8395 3.43482C15.6452 3.43824 15.4599 3.51696 15.3224 3.65437C15.185 3.79178 15.1063 3.97717 15.1029 4.17147C15.0995 4.36577 15.1716 4.55382 15.3041 4.69599C16.0006 5.39244 16.5531 6.21926 16.93 7.12924C17.307 8.03921 17.501 9.01453 17.501 9.99949C17.501 10.9845 17.307 11.9598 16.93 12.8697C16.5531 13.7797 16.0006 14.6065 15.3041 15.303C15.1674 15.4444 15.0917 15.6338 15.0933 15.8304C15.0949 16.0271 15.1737 16.2152 15.3127 16.3544C15.4517 16.4935 15.6398 16.5725 15.8364 16.5743C16.0331 16.5761 16.2226 16.5005 16.3641 16.364C17.1998 15.5283 17.8628 14.5361 18.3151 13.4442C18.7673 12.3522 19.0001 11.1819 19.0001 9.99999C19.0001 8.81809 18.7673 7.64775 18.3151 6.55582C17.8628 5.46388 17.1998 4.47172 16.3641 3.63599ZM4.69707 4.69699C4.83362 4.55548 4.90913 4.36599 4.90733 4.16934C4.90553 3.97269 4.82656 3.78462 4.68744 3.64563C4.54832 3.50664 4.36017 3.42785 4.16352 3.42623C3.96687 3.42462 3.77745 3.5003 3.63607 3.63699C1.94852 5.32478 1.00049 7.61377 1.00049 10.0005C1.00049 12.3872 1.94852 14.6762 3.63607 16.364C3.70473 16.4377 3.78753 16.4968 3.87953 16.5378C3.97153 16.5788 4.07084 16.6008 4.17154 16.6026C4.27225 16.6044 4.37228 16.5858 4.46566 16.5481C4.55905 16.5104 4.64389 16.4542 4.7151 16.383C4.78632 16.3118 4.84247 16.227 4.88019 16.1336C4.91791 16.0402 4.93643 15.9402 4.93466 15.8395C4.93288 15.7388 4.91084 15.6395 4.86985 15.5475C4.82886 15.4555 4.76975 15.3727 4.69607 15.304C3.99957 14.6075 3.44707 13.7807 3.07013 12.8707C2.69318 11.9608 2.49917 10.9855 2.49917 10.0005C2.49917 9.01553 2.69318 8.04021 3.07013 7.13024C3.44707 6.22026 4.00057 5.39344 4.69707 4.69699Z" fill="#131313"/>
<path d="M12.4752 6.46501C12.6158 6.32456 12.8064 6.24567 13.0052 6.24567C13.2039 6.24567 13.3945 6.32456 13.5352 6.46501C14.4725 7.40265 14.9991 8.67419 14.9991 10C14.9991 11.3258 14.4725 12.5974 13.5352 13.535C13.4665 13.6087 13.3837 13.6678 13.2917 13.7088C13.1997 13.7498 13.1004 13.7718 12.9997 13.7736C12.899 13.7754 12.7989 13.7569 12.7056 13.7191C12.6122 13.6814 12.5273 13.6253 12.4561 13.554C12.3849 13.4828 12.3288 13.398 12.291 13.3046C12.2533 13.2112 12.2348 13.1112 12.2366 13.0105C12.2383 12.9098 12.2604 12.8105 12.3014 12.7185C12.3424 12.6265 12.4015 12.5437 12.4752 12.475C12.8002 12.15 13.058 11.7641 13.2339 11.3395C13.4099 10.9148 13.5004 10.4597 13.5004 10C13.5004 9.54035 13.4099 9.08519 13.2339 8.66053C13.058 8.23587 12.8002 7.85002 12.4752 7.52501C12.3347 7.38438 12.2558 7.19376 12.2558 6.99501C12.2558 6.79626 12.3347 6.60563 12.4752 6.46501ZM7.52515 6.46501C7.6656 6.60563 7.74449 6.79626 7.74449 6.99501C7.74449 7.19376 7.6656 7.38438 7.52515 7.52501C7.20011 7.85002 6.94227 8.23587 6.76636 8.66053C6.59044 9.08519 6.4999 9.54035 6.4999 10C6.4999 10.4597 6.59044 10.9148 6.76636 11.3395C6.94227 11.7641 7.20011 12.15 7.52515 12.475C7.65763 12.6172 7.72976 12.8052 7.72633 12.9995C7.7229 13.1938 7.64419 13.3792 7.50677 13.5166C7.36936 13.654 7.18398 13.7328 6.98968 13.7362C6.79537 13.7396 6.60733 13.6675 6.46515 13.535C5.5278 12.5974 5.00122 11.3258 5.00122 10C5.00122 8.67419 5.5278 7.40265 6.46515 6.46501C6.60578 6.32456 6.7964 6.24567 6.99515 6.24567C7.1939 6.24567 7.38453 6.32456 7.52515 6.46501ZM11.0002 10C11.0002 10.2652 10.8948 10.5196 10.7073 10.7071C10.5197 10.8946 10.2654 11 10.0002 11C9.73494 11 9.48058 10.8946 9.29305 10.7071C9.10551 10.5196 9.00015 10.2652 9.00015 10C9.00015 9.73479 9.10551 9.48044 9.29305 9.2929C9.48058 9.10536 9.73494 9.00001 10.0002 9.00001C10.2654 9.00001 10.5197 9.10536 10.7073 9.2929C10.8948 9.48044 11.0002 9.73479 11.0002 10Z" fill="#131313"/>
</svg>
