<svg width="188" height="188" viewBox="0 0 188 188" fill="none" xmlns="http://www.w3.org/2000/svg">
<circle cx="93.925" cy="93.925" r="93.4646" stroke="#6F6F6F" stroke-width="0.920833"/>
<circle cx="93.925" cy="93.9251" r="75.1382" stroke="#6F6F6F" stroke-width="0.740278"/>
<mask id="mask0_1588_146" style="mask-type:alpha" maskUnits="userSpaceOnUse" x="0" y="0" width="188" height="188">
<path fill-rule="evenodd" clip-rule="evenodd" d="M93.925 187.85C145.798 187.85 187.85 145.798 187.85 93.925C187.85 42.0517 145.798 0 93.925 0C42.0517 0 0 42.0517 0 93.925C0 145.798 42.0517 187.85 93.925 187.85ZM93.925 169.433C135.627 169.433 169.433 135.627 169.433 93.9251C169.433 52.223 135.627 18.4167 93.925 18.4167C52.2229 18.4167 18.4166 52.223 18.4166 93.9251C18.4166 135.627 52.2229 169.433 93.925 169.433Z" fill="#D9D9D9"/>
</mask>
<g mask="url(#mask0_1588_146)">
<path fill-rule="evenodd" clip-rule="evenodd" d="M93.925 89.7844V1.09794e-08L93.0042 0V90.4889L69.6153 3.2004L68.7258 3.43873L92.1968 91.0336L45.7393 13.3021L44.9488 13.7745L91.2585 91.2585L27.5101 27.5101L26.859 28.1613L90.8433 92.1456L12.5839 46.9625L12.1235 47.76L90.6585 93.1022L2.84381 70.9882L2.61894 71.8812L90.1551 93.925L0 93.925V94.8459L86.9309 94.8458L2.96211 117.345L3.20044 118.235L90.4887 94.8458H90.5889L12.8293 141.32L13.3017 142.111L90.2751 96.1062L90.0476 96.5002L26.8588 159.689L27.5099 160.34L88.2688 99.5813L44.6822 175.075L45.4796 175.536L90.7845 97.0655L92.6562 95.1938L70.0957 184.781L70.9887 185.006L93.0042 97.5829V187.85H93.925V97.4833L117.345 184.888L118.234 184.65L94.7967 97.1786L141.32 175.02L142.11 174.548L95.8593 97.1616L159.689 160.991L160.34 160.34L96.4402 96.4403L174.806 141.685L175.267 140.887L96.842 95.6089L184.782 117.754L185.007 116.861L97.5825 94.8458L187.85 94.8458V93.925L93.9253 93.925L93.9253 93.9249L184.65 69.6155L184.411 68.7261L96.8153 92.1973L174.548 45.7394L174.075 44.9489L96.592 91.258L160.34 27.5101L159.689 26.859L94.3637 92.1841L94.9524 89.8466L139.405 12.853L138.607 12.3926L95.7749 86.5802L116.862 2.84358L115.969 2.61871L94.0908 89.4973L93.925 89.7844Z" fill="#6F6F6F"/>
</g>
</svg>
