<svg width="399" height="399" viewBox="0 0 399 399" fill="none" xmlns="http://www.w3.org/2000/svg">
<path fill-rule="evenodd" clip-rule="evenodd" d="M205.007 120.871H196.686L199.604 187.99L185.051 122.403L177.013 124.556L198.929 194.112L149.65 140.352L143.765 146.236L193.284 191.628L136.627 155.548L132.466 162.755L197.142 196.439L124.285 193.271L124.285 201.593L191.394 198.675L125.812 213.227L127.966 221.265L197.524 199.347L143.765 248.626L149.65 254.51L195.052 204.981L158.962 261.654L166.168 265.815L199.853 201.136L196.686 273.991H205.007L202.09 206.888L216.639 272.46L224.678 270.306L202.761 200.752L252.04 254.51L257.924 248.626L208.369 203.2L265.081 239.315L269.242 232.108L204.567 198.426L277.405 201.593V193.271L210.273 196.19L275.867 181.635L273.713 173.597L204.172 195.51L257.924 146.236L252.04 140.352L206.66 189.858L242.734 133.209L235.527 129.049L201.839 193.734L205.007 120.871Z" fill="#F5F5F5"/>
<circle cx="199.5" cy="199.5" r="197.4" transform="rotate(-90 199.5 199.5)" stroke="#F5F5F5" stroke-width="4.2"/>
<circle cx="198.775" cy="199.499" r="121.952" transform="rotate(-45 198.775 199.499)" stroke="#F5F5F5" stroke-width="3.94597"/>
<path d="M313.534 99.1294L306.866 91.7557C306.733 91.6092 306.743 91.4232 306.889 91.2907L314.995 83.9595C315.142 83.827 315.328 83.8364 315.46 83.9829L322.129 91.3566C322.262 91.5031 322.252 91.6891 322.106 91.8216L313.999 99.1528C313.853 99.2853 313.667 99.2759 313.534 99.1294Z" fill="#F5F5F5"/>
<path d="M354.316 131.645L339.954 137.912L326.04 144.055C325.859 144.134 325.686 144.066 325.607 143.885L324.527 141.411C324.448 141.229 324.516 141.056 324.697 140.977L338.664 134.955L353.026 128.688L350.972 123.981C350.893 123.8 350.961 123.627 351.142 123.548L353.013 122.731C353.194 122.652 353.367 122.72 353.446 122.901L355.5 127.608L358.819 126.16C365.397 123.29 369.176 126.023 370.606 129.135C371.132 130.342 371.425 131.507 371.492 132.484C371.571 132.665 371.443 132.864 371.262 132.943L369.511 133.707C369.391 133.76 369.217 133.692 369.138 133.511C369.072 132.534 368.797 131.576 368.429 130.731C367.217 127.955 364.575 127.169 359.929 129.196L356.791 130.565L359.819 137.505C359.898 137.686 359.83 137.86 359.649 137.939L357.778 138.755C357.597 138.834 357.423 138.766 357.345 138.585L354.316 131.645Z" fill="#F5F5F5"/>
<path d="M329.735 154.047L328.976 151.456C328.921 151.267 329.01 151.103 329.2 151.048L345.728 146.343L361.108 141.7C361.298 141.644 361.461 141.733 361.517 141.923L362.276 144.514C362.331 144.703 362.242 144.867 362.053 144.922L356.039 146.409C360.857 147.399 364.506 150.721 365.802 155.144C366.061 156.029 366.257 156.932 366.253 157.619C366.245 157.827 366.092 158.009 365.903 158.065L363.818 158.676C363.691 158.713 363.528 158.623 363.473 158.434C363.477 157.746 363.381 156.951 363.104 156.003C361.697 151.201 356.949 147.172 349.505 148.461L330.144 154.27C329.954 154.326 329.791 154.237 329.735 154.047Z" fill="#F5F5F5"/>
<path d="M354.69 196.299C344.218 197.446 336.562 192.853 335.501 183.166C334.433 173.414 340.856 167.346 351.393 166.192C361.93 165.038 369.58 169.565 370.648 179.317C371.709 189.003 365.228 195.144 354.69 196.299ZM351.751 169.464C342.588 170.468 337.201 175.098 338.054 182.887C338.914 190.741 345.162 193.964 354.325 192.961C363.422 191.964 368.948 187.385 368.095 179.596C367.17 171.75 360.914 168.461 351.751 169.464Z" fill="#F5F5F5"/>
<path d="M337.682 202.178L337.966 199.493C337.987 199.297 338.132 199.18 338.328 199.2L352.785 200.863L371.387 202.766C371.583 202.786 371.7 202.931 371.679 203.128L371.409 205.681C371.388 205.878 371.244 205.995 371.047 205.974L364.448 205.143C368.045 207.444 371.571 211.657 370.954 217.484C370.241 224.228 365.403 228.02 356.171 227.043L349.755 226.364L335.605 224.932C335.409 224.912 335.291 224.767 335.312 224.57L335.596 221.886C335.617 221.689 335.762 221.572 335.958 221.593L350.094 223.155L356.183 223.8C364.302 224.659 367.74 221.58 368.281 216.473C368.814 211.432 365.377 207.625 359.458 204.747L352.125 203.971L337.975 202.54C337.779 202.519 337.662 202.374 337.682 202.178Z" fill="#F5F5F5"/>
<path d="M332.564 244.453L330.659 243.932C330.468 243.88 330.312 243.701 330.364 243.511C330.388 242.425 330.452 240.941 330.781 239.734C331.943 235.479 334.97 232.892 341.893 234.783L363.425 240.662L364.483 236.787C364.535 236.597 364.697 236.505 364.887 236.557L366.856 237.094C367.047 237.146 367.139 237.308 367.087 237.498L366.029 241.373L373.923 243.46C374.113 243.512 374.206 243.674 374.154 243.864L373.442 246.468C373.39 246.659 373.229 246.751 373.038 246.699L365.179 244.485L363.012 252.425C362.96 252.615 362.798 252.708 362.607 252.656L360.638 252.118C360.448 252.066 360.355 251.904 360.407 251.714L362.575 243.774L341.043 237.895C336.153 236.56 334.345 237.431 333.46 240.67C333.131 241.877 332.894 243.246 332.905 244.204C332.853 244.395 332.691 244.487 332.564 244.453Z" fill="#F5F5F5"/>
<path d="M322.948 285.202L321.637 287.41C321.536 287.58 321.356 287.626 321.22 287.468C315.315 282.583 313.536 276.165 317.705 269.146C322.816 260.541 331.676 259.677 340.62 264.99C349.564 270.302 352.946 279.049 348.306 286.861C343.7 294.617 335.508 296.031 326.044 290.563C325.874 290.462 325.828 290.282 325.929 290.112L339.086 267.831C330.877 262.956 323.981 263.607 319.879 270.514C316.719 275.835 318.14 280.662 322.867 284.694C323.003 284.852 323.049 285.032 322.948 285.202ZM329.807 288.739C335.728 292.18 342.4 291.777 346.098 285.55C349.528 279.776 347.446 273.868 341.34 269.322L329.807 288.739Z" fill="#F5F5F5"/>
<path d="M308.191 285.371L310.032 283.397C310.167 283.252 310.353 283.246 310.497 283.381L321.048 293.403L334.766 306.109C334.911 306.244 334.917 306.43 334.782 306.575L333.031 308.452C332.896 308.597 332.71 308.603 332.565 308.469L327.793 303.836C329.283 307.837 329.566 313.324 325.569 317.609C320.943 322.568 314.798 322.689 308.01 316.356L303.291 311.955L292.847 302.302C292.703 302.167 292.696 301.981 292.831 301.837L294.672 299.863C294.807 299.718 294.993 299.712 295.138 299.847L305.492 309.596L309.97 313.772C315.94 319.342 320.538 318.949 324.041 315.194C327.499 311.486 327.042 306.378 324.044 300.519L318.651 295.489L308.207 285.836C308.063 285.701 308.056 285.515 308.191 285.371Z" fill="#F5F5F5"/>
<path d="M297.539 320.826C292.711 313.838 286.056 310.113 279.881 314.379C274.464 318.122 273.749 324.617 279.234 332.672C284.681 340.673 291.317 343.211 296.95 339.319C303.234 334.977 302.217 327.597 297.539 320.826ZM267.582 320.555L269.749 319.058C269.911 318.946 270.095 318.98 270.207 319.142L273.766 324.526C272.88 319.536 274.467 314.999 278.909 311.93C286.168 306.915 294.447 310.558 300.06 318.684C305.599 326.701 306.173 335.988 298.968 340.965C294.689 343.922 290.071 344.072 285.663 341.515L296.084 356.483C296.196 356.645 296.163 356.828 296 356.94L293.779 358.475C293.617 358.587 293.434 358.554 293.322 358.391L283.101 343.365L267.498 321.013C267.386 320.851 267.42 320.668 267.582 320.555Z" fill="#F5F5F5"/>
<path d="M254.136 346.023C251.778 337.863 246.651 332.217 239.44 334.3C233.115 336.128 230.374 342.06 233.016 351.44C235.64 360.757 241.125 365.271 247.703 363.37C255.041 361.25 256.421 353.929 254.136 346.023ZM225.817 336.25L228.347 335.518C228.537 335.464 228.7 335.554 228.755 335.743L230.419 341.979C231.164 336.966 234.11 333.168 239.297 331.669C247.773 329.22 254.466 335.304 257.207 344.792C259.912 354.154 257.507 363.142 249.094 365.573C244.097 367.017 239.67 365.692 236.303 361.867L241.43 379.37C241.485 379.56 241.395 379.723 241.205 379.778L238.611 380.527C238.422 380.582 238.259 380.492 238.204 380.302L233.286 362.808L225.592 336.657C225.537 336.467 225.627 336.304 225.817 336.25Z" fill="#F5F5F5"/>
<path d="M198.274 350.853L195.712 351.03C195.515 351.043 195.375 350.921 195.427 350.72C196.087 343.084 200.353 337.971 208.498 337.408C218.482 336.717 224.232 343.513 224.949 353.891C225.667 364.27 220.396 372.026 211.331 372.653C202.333 373.275 196.51 367.342 195.625 356.448C195.611 356.251 195.734 356.11 195.931 356.097L221.74 354.245C221.081 344.721 216.623 339.42 208.609 339.974C202.435 340.401 199.274 344.316 198.645 350.497C198.593 350.699 198.471 350.839 198.274 350.853ZM199.265 358.506C199.803 365.333 203.929 370.591 211.154 370.091C217.854 369.628 221.529 364.556 221.795 356.948L199.265 358.506Z" fill="#F5F5F5"/>
<path d="M161.427 368.798L177.87 337.315C177.96 337.128 178.173 337.022 178.369 337.047L181.7 337.474C181.895 337.499 182.075 337.654 182.115 337.859L190.489 372.518C190.53 372.722 190.448 372.845 190.252 372.82L187.313 372.443C187.117 372.418 186.938 372.263 186.897 372.058L179.609 340.326L164.758 369.224C164.667 369.412 164.455 369.518 164.259 369.492L161.581 369.15C161.385 369.125 161.337 368.986 161.427 368.798Z" fill="#F5F5F5"/>
<path d="M140.334 339.404L137.898 338.592C137.711 338.529 137.628 338.363 137.753 338.196C141.273 331.388 147.166 328.288 154.911 330.871C164.405 334.038 167.13 342.513 163.838 352.381C160.546 362.25 152.716 367.411 144.097 364.536C135.54 361.681 132.419 353.977 135.753 343.567C135.815 343.38 135.982 343.297 136.169 343.359L160.736 351.485C163.757 342.429 161.656 335.828 154.036 333.286C148.165 331.328 143.75 333.742 140.813 339.217C140.688 339.384 140.522 339.467 140.334 339.404ZM138.334 346.858C136.229 353.374 138.039 359.808 144.909 362.1C151.28 364.225 156.611 360.937 159.757 354.005L138.334 346.858Z" fill="#F5F5F5"/>
<path d="M135.91 323.82L138.261 325.008C138.437 325.097 138.495 325.274 138.406 325.45L127.838 346.077L117.92 366C117.831 366.176 117.654 366.234 117.478 366.145L115.127 364.957C114.951 364.868 114.893 364.691 114.982 364.515L125.075 344.829L135.468 323.966C135.557 323.789 135.734 323.731 135.91 323.82Z" fill="#F5F5F5"/>
<path d="M97.2403 319.172C103.294 310.55 111.799 307.834 119.774 313.434C127.802 319.072 128.118 327.902 122.026 336.577C115.934 345.252 107.483 348.007 99.4548 342.369C91.4801 336.769 91.1483 327.847 97.2403 319.172ZM119.332 334.685C124.63 327.142 124.71 320.038 118.298 315.535C111.832 310.995 105.286 313.558 99.9883 321.101C94.7287 328.591 94.5184 335.765 100.93 340.267C107.434 344.754 114.035 342.229 119.332 334.685Z" fill="#F5F5F5"/>
<path d="M91.1474 314.035C98.32 307.536 99.8219 300.703 95.1898 295.66C90.0232 290.035 82.9027 292.016 76.8898 297.539C70.586 303.329 67.8145 310.434 72.9365 316.011C77.3459 320.811 83.9262 320.578 91.1474 314.035ZM74.3719 295.382C81.5486 288.79 90.6673 286.941 96.591 293.39C100.154 297.269 100.939 301.823 98.9177 306.63L111.679 294.73C111.824 294.596 112.01 294.604 112.144 294.75L113.97 296.738C114.104 296.883 114.096 297.069 113.95 297.203L94.3679 315.011L81.219 327.267C81.0735 327.4 80.8874 327.392 80.7538 327.247L78.9723 325.307C78.8386 325.162 78.8465 324.976 78.992 324.842L83.8817 320.53C78.969 322.092 74.2076 321.191 70.6 317.263C64.6317 310.765 67.0983 302.063 74.3719 295.382Z" fill="#F5F5F5"/>
<path d="M62.6453 266.835L61.3508 264.617C61.2512 264.446 61.2986 264.266 61.5024 264.223C68.6391 261.43 75.1135 262.987 79.2292 270.039C84.2742 278.682 80.7315 286.849 71.7471 292.093C62.7627 297.337 53.4732 296.051 48.8928 288.203C44.3456 280.413 47.0828 272.564 56.4557 266.941C56.6263 266.841 56.8064 266.888 56.906 267.059L70.007 289.373C78.2521 284.56 81.0277 278.213 76.9783 271.276C73.8584 265.931 68.9481 264.833 63.1287 267.01C62.9249 267.052 62.7448 267.005 62.6453 266.835ZM56.2246 271.116C50.344 274.625 47.4594 280.654 51.1104 286.909C54.496 292.709 60.6716 293.755 67.6092 290.62L56.2246 271.116Z" fill="#F5F5F5"/>
<path d="M69.7582 253.126L70.6787 255.664C70.7461 255.849 70.6672 256.018 70.4815 256.085L54.2821 261.822L39.2246 267.424C39.039 267.491 38.8703 267.412 38.8029 267.227L37.8824 264.689C37.815 264.503 37.8939 264.334 38.0796 264.267L43.9875 262.404C39.1166 261.72 35.2657 258.634 33.6941 254.301C33.3797 253.435 33.1273 252.546 33.0885 251.86C33.083 251.652 33.2238 251.46 33.4095 251.393L35.452 250.652C35.5758 250.607 35.7445 250.686 35.8118 250.872C35.8507 251.558 35.9963 252.346 36.3331 253.274C38.0395 257.978 43.0318 261.7 50.3796 259.945L69.3365 252.929C69.5221 252.861 69.6908 252.94 69.7582 253.126Z" fill="#F5F5F5"/>
<path d="M46.0097 214.35L47.1642 224.225C47.1871 224.421 47.0716 224.567 46.8754 224.59L36.0197 225.859C35.8235 225.882 35.6774 225.767 35.6545 225.57L34.5 215.696C34.4771 215.499 34.5926 215.353 34.7888 215.33L45.6445 214.061C45.8407 214.038 45.9868 214.154 46.0097 214.35Z" fill="#F5F5F5"/>
<path d="M58.7805 155.623C61.9927 158.435 64.8499 163.129 63.3689 168.798C61.6551 175.36 56.3053 178.386 47.323 176.039L41.08 174.409L27.3033 170.878C27.1122 170.828 27.0181 170.668 27.068 170.477L27.7502 167.865C27.8002 167.674 27.9608 167.579 28.152 167.629L41.8954 171.287L47.8199 172.835C55.7192 174.898 59.5785 172.367 60.8764 167.399C62.1577 162.493 59.3281 158.216 53.9057 154.486L46.7708 152.622L32.9941 149.091C32.803 149.042 32.7089 148.881 32.7588 148.69L33.441 146.078C33.4909 145.887 33.6516 145.793 33.8427 145.843L47.8881 149.647L65.9966 154.309C66.1878 154.359 66.2819 154.52 66.232 154.711L65.583 157.195C65.5331 157.387 65.3724 157.481 65.1813 157.431L58.7805 155.623Z" fill="#F5F5F5"/>
<path d="M35.2103 131.16L34.1586 133.646C34.0816 133.828 33.909 133.898 33.7271 133.821L30.0282 132.256C29.8463 132.179 29.7763 132.007 29.8532 131.825L30.905 129.338C30.9819 129.157 31.1545 129.087 31.3364 129.164L35.0354 130.728C35.2173 130.805 35.2873 130.978 35.2103 131.16ZM69.9563 145.859L68.9045 148.345C68.8276 148.527 68.655 148.597 68.4731 148.52L52.3082 141.61L37.8506 135.565C37.6686 135.488 37.5987 135.316 37.6756 135.134L38.7274 132.648C38.8043 132.466 38.9769 132.396 39.1588 132.473L53.5045 138.613L69.7813 145.427C69.9633 145.504 70.0332 145.677 69.9563 145.859Z" fill="#F5F5F5"/>
<path d="M75.6543 101.709C81.8202 107.551 89.1005 109.823 94.2627 104.374C98.7909 99.5938 98.1494 93.0908 91.1207 86.3413C84.1397 79.637 77.1235 78.5225 72.4142 83.4935C67.1614 89.038 69.6796 96.0492 75.6543 101.709ZM105.022 95.7927L103.211 97.7046C103.075 97.848 102.889 97.853 102.746 97.7172L98.1519 93.1839C100.049 97.8832 99.4324 102.65 95.7192 106.57C89.6514 112.975 80.7988 111.118 73.6292 104.326C66.5551 97.624 64.0772 88.6556 70.0997 82.2986C73.677 78.5225 78.165 77.4232 83.0051 79.0156L69.7199 66.5203C69.5765 66.3844 69.5715 66.1983 69.7073 66.0549L71.5639 64.0952C71.6997 63.9518 71.8859 63.9468 72.0293 64.0826L85.1309 76.6761L105.01 95.3273C105.153 95.4631 105.158 95.6493 105.022 95.7927Z" fill="#F5F5F5"/>
<path d="M121.546 69.0604L123.67 67.617C123.833 67.506 124.016 67.5409 124.073 67.7412C127.349 74.6698 126.238 81.2357 119.486 85.8249C111.209 91.4503 102.818 88.4754 96.9709 79.8715C91.1234 71.2676 91.7704 61.9118 99.2852 56.8044C106.746 51.7341 114.764 53.9271 121.016 62.8926C121.127 63.056 121.092 63.2389 120.929 63.3499L99.5652 77.9491C104.932 85.8452 111.454 88.1793 118.097 83.6641C123.216 80.1852 123.975 75.2112 121.404 69.5547C121.348 69.3543 121.383 69.1714 121.546 69.0604ZM116.835 62.9482C112.931 57.3218 106.719 54.8571 100.729 58.9282C95.1741 62.7032 94.554 68.936 98.1567 75.6425L116.835 62.9482Z" fill="#F5F5F5"/>
<path d="M152.671 57.9927C155 63.7979 151.057 69.3527 144.152 72.1229C136.147 75.3343 129.751 73.7147 126.491 65.942C126.417 65.7586 126.49 65.5874 126.673 65.5139L128.996 64.5823C129.179 64.5088 129.35 64.5819 129.424 64.7653C132.071 71.0103 136.767 72.4605 143.306 69.8374C148.683 67.6801 151.552 63.6914 149.812 59.3528C145.718 49.1478 127.052 65.22 122.149 52.9986C119.869 47.3156 123.459 42.4703 130.181 39.7737C136.842 37.1015 143.335 37.9019 146.19 44.4891C146.264 44.6724 146.19 44.8436 146.007 44.9172L143.807 45.7997C143.624 45.8733 143.453 45.8001 143.379 45.6168C141.051 40.5207 136.16 39.9999 131.088 42.0346C125.833 44.1429 123.305 47.5689 124.972 51.7242C128.699 61.0125 147.425 44.9157 152.671 57.9927Z" fill="#F5F5F5"/>
<path d="M155.838 27.9451L153.214 28.5792C153.022 28.6256 152.863 28.5285 152.817 28.3365L151.874 24.4326C151.827 24.2406 151.924 24.0816 152.116 24.0352L154.74 23.4012C154.932 23.3548 155.091 23.4518 155.138 23.6438L156.081 27.5478C156.127 27.7398 156.03 27.8987 155.838 27.9451ZM164.7 64.6167L162.076 65.2508C161.884 65.2972 161.725 65.2001 161.679 65.0081L157.613 47.9048L153.869 32.6885C153.822 32.4965 153.919 32.3375 154.111 32.2911L156.735 31.6571C156.927 31.6107 157.086 31.7077 157.133 31.8997L160.734 47.083L164.942 64.2194C164.989 64.4114 164.892 64.5703 164.7 64.6167Z" fill="#F5F5F5"/>
<path d="M170.171 45.5095C171.016 54.424 175.137 59.5226 182.734 58.7362C188.824 58.0927 192.668 53.2971 191.833 43.7865C190.991 34.2104 186.446 28.8213 179.629 29.4676C172.353 30.1574 169.344 36.7917 170.171 45.5095ZM196.031 56.6819C197.104 67.2943 192.245 73.2444 183.723 74.0522C176.716 74.7827 170.656 72.2489 169.37 64.9635C169.351 64.7668 169.47 64.6233 169.667 64.6047L172.223 64.3623C172.42 64.3437 172.563 64.4623 172.582 64.659C173.759 70.1028 178.309 72.0524 183.553 71.5552C189.78 70.9648 193.846 66.4128 192.951 56.974L192.609 53.3688C190.856 57.9 187.362 60.8106 182.249 61.2953C173.204 62.1529 167.82 55.5868 166.9 45.8858C165.98 36.1848 169.96 27.9372 179.005 27.0796C184.184 26.5887 188.156 28.7252 190.76 33.174L190.039 26.9594C190.02 26.7628 190.139 26.6193 190.336 26.6006L192.957 26.3521C193.154 26.3334 193.298 26.4521 193.316 26.6487L194.136 36.6899L196.031 56.6819Z" fill="#F5F5F5"/>
<path d="M201.833 60.0152L199.152 59.7018C198.956 59.6788 198.84 59.5327 198.863 59.3365L200.684 44.8993L202.789 26.3192C202.812 26.123 202.958 26.0075 203.155 26.0305L205.705 26.3286C205.901 26.3516 206.017 26.4977 205.994 26.6938L205.091 33.2835C207.431 29.7123 211.682 26.232 217.503 26.9124C224.238 27.6998 227.977 32.5783 226.899 41.7991L226.15 48.2079L224.564 62.3411C224.541 62.5373 224.395 62.6528 224.199 62.6299L221.517 62.3164C221.321 62.2935 221.206 62.1474 221.229 61.9512L222.945 47.8333L223.656 41.7515C224.604 33.6424 221.563 30.1712 216.462 29.5749C211.427 28.9862 207.583 32.3816 204.641 38.2689L203.784 45.5933L202.198 59.7265C202.175 59.9226 202.029 60.0381 201.833 60.0152Z" fill="#F5F5F5"/>
<path d="M257.049 60.1015L259.475 60.9412C259.662 61.0057 259.743 61.1733 259.616 61.3384C256.021 68.1063 250.093 71.1414 242.378 68.4717C232.92 65.1991 230.289 56.6945 233.691 46.8635C237.093 37.0325 244.98 31.9583 253.566 34.9295C262.091 37.8791 265.126 45.6178 261.676 55.9897C261.612 56.1764 261.444 56.2577 261.257 56.1932L236.783 47.794C233.661 56.8162 235.689 63.4399 243.28 66.0666C249.129 68.0904 253.57 65.7255 256.568 60.2834C256.694 60.1183 256.862 60.0369 257.049 60.1015ZM259.132 52.6708C261.309 46.1783 259.571 39.7244 252.726 37.3561C246.38 35.16 241.013 38.3889 237.79 45.286L259.132 52.6708Z" fill="#F5F5F5"/>
<path d="M260.647 75.1361L258.295 73.8108C258.123 73.7138 258.073 73.5344 258.17 73.3624L266.722 58.456L274.494 44.3954C274.591 44.2233 274.77 44.1733 274.943 44.2702L277.294 45.5955C277.466 45.6925 277.516 45.8719 277.42 46.044L274.152 51.3065C278.293 48.6521 283.224 48.4838 287.24 50.7466C288.043 51.1991 288.813 51.709 289.29 52.2043C289.43 52.3587 289.447 52.5954 289.35 52.7675L288.284 54.6604C288.219 54.7751 288.04 54.8252 287.868 54.7282C287.391 54.2329 286.767 53.7303 285.907 53.2454C281.548 50.7887 275.335 51.2178 270.905 57.3367L261.096 75.0109C260.999 75.183 260.819 75.2331 260.647 75.1361Z" fill="#F5F5F5"/>
</svg>
