<svg width="46" height="23" viewBox="0 0 46 23" fill="none" xmlns="http://www.w3.org/2000/svg">
<mask id="path-1-inside-1_1517_874" fill="white">
<path fill-rule="evenodd" clip-rule="evenodd" d="M45.2873 -7.24792e-05L22.6695 22.6177L0.0517578 -7.24792e-05H11.5228L22.6695 11.1467L33.8162 -7.24792e-05H45.2873Z"/>
</mask>
<path d="M45.2873 -7.24792e-05V-0.552698H46.6214L45.678 0.390692L45.2873 -7.24792e-05ZM22.6695 22.6177L23.0603 23.0084L22.6695 23.3992L22.2787 23.0084L22.6695 22.6177ZM0.0517578 -7.24792e-05L-0.339007 0.390692L-1.2824 -0.552698H0.0517578V-7.24792e-05ZM11.5228 -7.24792e-05V-0.552698H11.7517L11.9135 -0.390837L11.5228 -7.24792e-05ZM22.6695 11.1467L23.0603 11.5374L22.6695 11.9282L22.2787 11.5374L22.6695 11.1467ZM33.8162 -7.24792e-05L33.4255 -0.390837L33.5873 -0.552698H33.8162V-7.24792e-05ZM45.678 0.390692L23.0603 23.0084L22.2787 22.2269L44.8965 -0.390837L45.678 0.390692ZM22.2787 23.0084L-0.339007 0.390692L0.442523 -0.390837L23.0603 22.2269L22.2787 23.0084ZM11.5228 0.552553H0.0517578V-0.552698H11.5228V0.552553ZM22.2787 11.5374L11.132 0.390692L11.9135 -0.390837L23.0603 10.7559L22.2787 11.5374ZM34.207 0.390692L23.0603 11.5374L22.2787 10.7559L33.4255 -0.390837L34.207 0.390692ZM45.2873 0.552553H33.8162V-0.552698H45.2873V0.552553Z" fill="#EFEFEF" mask="url(#path-1-inside-1_1517_874)"/>
</svg>
